<svg width="399.38988037109374px" height="122px" xmlns="http://www.w3.org/2000/svg" viewBox="50.30505981445313 14 399.38988037109374 122" style="background: rgba(0, 0, 0, 0);" preserveAspectRatio="xMidYMid"><defs><linearGradient id="editing-shiny-gradient" x1="0" x2="1" y1="0.5" y2="0.5" gradientUnits="objectBoundingBox"><stop offset="0.0" stop-color="#ff0000"></stop><stop offset="0.5" stop-color="#ff0000"></stop><stop offset="1.0" stop-color="#ff0000"></stop></linearGradient><linearGradient id="editing-shiny-gradient2" x1="0" x2="0" y1="0" y2="1"><stop offset="0.2" stop-color="#fff" stop-opacity="0.8"></stop><stop offset="0.8" stop-color="#fff" stop-opacity="0"></stop></linearGradient><filter id="editing-shiny2" x="-100%" y="-100%" width="300%" height="300%"><feMorphology operator="erode" radius="2"></feMorphology></filter><filter id="editing-shiny" x="-100%" y="-100%" width="300%" height="300%"><feFlood flood-color="#fff" result="flood"></feFlood><feConvolveMatrix in="SourceGraphic" result="conv" order="8,8" divisor="1" kernelMatrix="0 0 0 0 0 0 0 0 0 0 0 1 1 0 0 0 0 0 0 1 1 0 0 0 0 0 1 0 0 1 0 0 0 0 1 0 0 1 0 0 0 1 0 0 0 0 1 0 0 1 1 0 0 1 1 0 0 0 0 1 1 0 0 0 "></feConvolveMatrix><feOffset dx="0" dy="4" in="conv" result="offset"></feOffset><feComposite operator="in" in="flood" in2="offset" result="comp"></feComposite><feGaussianBlur in="offset" stdDeviation="3" result="shadow"></feGaussianBlur><feColorMatrix in="shadow" type="matrix" values="0.7 0 0 0 0  0 0.7 0 0 0  0 0 0.7 0 0  0 0 0 0.3 0" result="dark-shadow"></feColorMatrix><feOffset dx="0" dy="4" in="dark-shadow" result="offset-shadow"></feOffset><feOffset dx="0" dy="2" in="conv" result="offset-2"></feOffset><feComposite operator="out" in="offset" in2="offset-2" result="edge-diff"></feComposite><feGaussianBlur in="edge-diff" stdDeviation="1" result="edge-blur"></feGaussianBlur><feColorMatrix in="edge-blur" result="edge-shadow" type="matrix" values="0 0 0 0 0  0 0 0 0 0  0 0 0 0 0  0 0 0 0.5 0"></feColorMatrix><feComposite operator="in" in="edge-shadow" in2="offset" result="edge-shadow-in"></feComposite><feOffset dx="0" dy="1" in="edge-shadow-in" result="edge-shadow-final"></feOffset><feMerge result="out"><feMergeNode in="offset-shadow"></feMergeNode><feMergeNode in="comp"></feMergeNode><feMergeNode in="edge-shadow-final"></feMergeNode><feMergeNode in="SourceGraphic"></feMergeNode></feMerge></filter></defs><g filter="url(#editing-shiny)"><g transform="translate(110.12600255012512, 102.52000045776367)"><path d="M2.30-9.47L2.30-9.47L2.30-9.47Q2.30-11.97 2.94-15.17L2.94-15.17L8.13-42.24L22.27-42.24L17.15-14.98L17.15-14.98Q16.58-11.97 16.58-9.76L16.58-9.76L16.58-9.76Q16.58-7.55 17.50-6.40L17.50-6.40L17.50-6.40Q18.43-5.25 20.16-5.25L20.16-5.25L20.16-5.25Q21.89-5.25 22.98-5.70L22.98-5.70L22.98-5.70Q24.06-6.14 24.96-7.23L24.96-7.23L24.96-7.23Q26.69-9.41 27.78-14.98L27.78-14.98L32.96-42.24L42.62-42.24L37.50-15.04L37.50-15.04Q35.71-5.95 30.78-2.30L30.78-2.30L30.78-2.30Q25.98 1.28 16.51 1.28L16.51 1.28L16.51 1.28Q9.41 1.28 5.63-1.79L5.63-1.79L5.63-1.79Q2.30-4.48 2.30-9.47ZM50.50 0L43.46 0L51.14-42.24L64.90-42.24L74.88-13.18L80.19-42.24L87.30-42.18L79.49 0L64.83 0L55.62-27.97L50.50 0ZM102.14 0L88.19 0L96.32-42.24L110.40-42.24L102.14 0ZM117.95 0.83L119.36-3.84L119.36-3.84Q121.60-2.62 124.93-2.62L124.93-2.62L124.93-2.62Q128.26-2.62 131.04-4.64L131.04-4.64L131.04-4.64Q133.82-6.66 135.81-10.37L135.81-10.37L135.81-10.37Q139.90-18.24 139.90-30.91L139.90-30.91L139.90-30.91Q139.90-38.98 136.26-38.98L136.26-38.98L136.26-38.98Q134.34-38.98 132.48-36.86L132.48-36.86L132.48-36.86Q130.62-34.75 129.15-31.36L129.15-31.36L129.15-31.36Q125.95-23.62 125.95-14.53L125.95-14.53L125.95-14.53Q125.95-12.67 126.85-11.55L126.85-11.55L126.85-11.55Q127.74-10.43 129.34-10.43L129.34-10.43L129.34-10.43Q129.09-8.45 127.36-7.04L127.36-7.04L127.36-7.04Q125.63-5.63 123.46-5.63L123.46-5.63L123.46-5.63Q118.27-5.63 115.62-8.86L115.62-8.86L115.62-8.86Q112.96-12.10 112.96-17.95L112.96-17.95L112.96-17.95Q112.96-23.81 114.75-28.42L114.75-28.42L114.75-28.42Q116.54-33.02 119.68-36.38L119.68-36.38L119.68-36.38Q122.82-39.74 127.14-41.66L127.14-41.66L127.14-41.66Q131.46-43.58 136.58-43.58L136.58-43.58L136.58-43.58Q153.73-43.58 153.73-26.88L153.73-26.88L153.73-26.88Q153.73-14.85 147.97-7.49L147.97-7.49L147.97-7.49Q142.21-0.06 132.22 0.83L132.22 0.83L132.22 0.83Q138.11 2.11 144.06 2.11L144.06 2.11L144.06 2.11Q148.74 2.11 152.19 0.13L152.19 0.13L152.19 0.13Q153.15-0.45 153.54-1.09L153.54-1.09L153.54-1.09Q155.46 0.64 155.46 4.06L155.46 4.06L155.46 4.06Q155.46 7.49 152.42 9.47L152.42 9.47L152.42 9.47Q149.38 11.46 143.46 11.46L143.46 11.46L143.46 11.46Q137.54 11.46 130.69 8.70L130.69 8.70L130.69 8.70Q123.84 5.95 117.95 0.83L117.95 0.83ZM158.02-9.47L158.02-9.47L158.02-9.47Q158.02-11.97 158.66-15.17L158.66-15.17L163.84-42.24L177.98-42.24L172.86-14.98L172.86-14.98Q172.29-11.97 172.29-9.76L172.29-9.76L172.29-9.76Q172.29-7.55 173.22-6.40L173.22-6.40L173.22-6.40Q174.14-5.25 175.87-5.25L175.87-5.25L175.87-5.25Q177.60-5.25 178.69-5.70L178.69-5.70L178.69-5.70Q179.78-6.14 180.67-7.23L180.67-7.23L180.67-7.23Q182.40-9.41 183.49-14.98L183.49-14.98L188.67-42.24L198.34-42.24L193.22-15.04L193.22-15.04Q191.42-5.95 186.50-2.30L186.50-2.30L186.50-2.30Q181.70 1.28 172.22 1.28L172.22 1.28L172.22 1.28Q165.12 1.28 161.34-1.79L161.34-1.79L161.34-1.79Q158.02-4.48 158.02-9.47ZM212.67 0L199.04 0L206.34-38.91L207.04-42.24L220.74-42.24L212.67 0ZM238.66-3.78L238.66-3.78L238.66-3.78Q236.93 1.28 230.27 1.28L230.27 1.28L230.27 1.28Q225.34 1.28 221.95-4.61L221.95-4.61L221.95-4.61Q218.50-10.50 217.86-20.10L217.86-20.10L217.86-20.10Q224.90-32.96 229.76-38.27L229.76-38.27L229.76-38.27Q234.43-43.33 239.30-43.33L239.30-43.33L239.30-43.33Q241.92-43.33 243.81-41.92L243.81-41.92L243.81-41.92Q245.70-40.51 246.14-38.27L246.14-38.27L246.14-38.27Q243.97-37.38 242.94-36.67L242.94-36.67L242.94-36.67Q240.38-34.75 236.93-30.46L236.93-30.46L231.10-23.49L231.10-23.49Q229.70-21.82 229.12-21.06L229.12-21.06L229.12-21.06Q230.08-15.68 232.96-10.37L232.96-10.37L232.96-10.37Q235.71-5.31 238.66-3.78ZM271.42-9.86L271.42-9.86L271.42-9.86Q272.64-8.32 272.64-5.82L272.64-5.82L272.64-5.82Q272.64-2.37 270.08-0.54L270.08-0.54L270.08-0.54Q267.52 1.28 263.49 1.28L263.49 1.28L263.49 1.28Q261.18 1.28 257.66 0.77L257.66 0.77L257.66 0.77Q250.75-0.32 248.64-0.32L248.64-0.32L248.64-0.32Q246.53-0.32 245.70-0.22L245.70-0.22L245.70-0.22Q244.86-0.13 243.52 0L243.52 0L251.39-42.24L278.98-42.24L278.98-42.24Q278.98-38.34 277.09-36.29L277.09-36.29L277.09-36.29Q275.20-34.24 271.49-34.24L271.49-34.24L271.49-34.24Q267.78-34.24 264-35.97L264-35.97L262.02-24.77L273.41-24.77L273.41-24.77Q273.41-21.38 271.74-19.49L271.74-19.49L271.74-19.49Q270.08-17.60 267.30-17.60L267.30-17.60L267.30-17.60Q264.51-17.60 262.78-18.24L262.78-18.24L262.78-18.24Q261.06-18.88 260.86-19.07L260.86-19.07L258.56-6.98L258.56-6.98Q260.10-6.78 262.98-6.78L262.98-6.78L262.98-6.78Q267.90-6.78 271.42-9.86Z" fill="url(#editing-shiny-gradient)"></path></g></g><g filter="url(#editing-shiny2)"><g transform="translate(110.12311100959778, 102.52000045776367)"><path d="M2.30-9.47L2.30-9.47L2.30-9.47Q2.30-11.97 2.94-15.17L2.94-15.17L8.13-42.24L22.27-42.24L17.15-14.98L17.15-14.98Q16.58-11.97 16.58-9.76L16.58-9.76L16.58-9.76Q16.58-7.55 17.50-6.40L17.50-6.40L17.50-6.40Q18.43-5.25 20.16-5.25L20.16-5.25L20.16-5.25Q21.89-5.25 22.98-5.70L22.98-5.70L22.98-5.70Q24.06-6.14 24.96-7.23L24.96-7.23L24.96-7.23Q26.69-9.41 27.78-14.98L27.78-14.98L32.96-42.24L42.62-42.24L37.50-15.04L37.50-15.04Q35.71-5.95 30.78-2.30L30.78-2.30L30.78-2.30Q25.98 1.28 16.51 1.28L16.51 1.28L16.51 1.28Q9.41 1.28 5.63-1.79L5.63-1.79L5.63-1.79Q2.30-4.48 2.30-9.47ZM50.50 0L43.46 0L51.14-42.24L64.90-42.24L74.88-13.18L80.19-42.24L87.30-42.18L79.49 0L64.83 0L55.62-27.97L50.50 0ZM102.14 0L88.19 0L96.32-42.24L110.40-42.24L102.14 0ZM117.95 0.83L119.36-3.84L119.36-3.84Q121.60-2.62 124.93-2.62L124.93-2.62L124.93-2.62Q128.26-2.62 131.04-4.64L131.04-4.64L131.04-4.64Q133.82-6.66 135.81-10.37L135.81-10.37L135.81-10.37Q139.90-18.24 139.90-30.91L139.90-30.91L139.90-30.91Q139.90-38.98 136.26-38.98L136.26-38.98L136.26-38.98Q134.34-38.98 132.48-36.86L132.48-36.86L132.48-36.86Q130.62-34.75 129.15-31.36L129.15-31.36L129.15-31.36Q125.95-23.62 125.95-14.53L125.95-14.53L125.95-14.53Q125.95-12.67 126.85-11.55L126.85-11.55L126.85-11.55Q127.74-10.43 129.34-10.43L129.34-10.43L129.34-10.43Q129.09-8.45 127.36-7.04L127.36-7.04L127.36-7.04Q125.63-5.63 123.46-5.63L123.46-5.63L123.46-5.63Q118.27-5.63 115.62-8.86L115.62-8.86L115.62-8.86Q112.96-12.10 112.96-17.95L112.96-17.95L112.96-17.95Q112.96-23.81 114.75-28.42L114.75-28.42L114.75-28.42Q116.54-33.02 119.68-36.38L119.68-36.38L119.68-36.38Q122.82-39.74 127.14-41.66L127.14-41.66L127.14-41.66Q131.46-43.58 136.58-43.58L136.58-43.58L136.58-43.58Q153.73-43.58 153.73-26.88L153.73-26.88L153.73-26.88Q153.73-14.85 147.97-7.49L147.97-7.49L147.97-7.49Q142.21-0.06 132.22 0.83L132.22 0.83L132.22 0.83Q138.11 2.11 144.06 2.11L144.06 2.11L144.06 2.11Q148.74 2.11 152.19 0.13L152.19 0.13L152.19 0.13Q153.15-0.45 153.54-1.09L153.54-1.09L153.54-1.09Q155.46 0.64 155.46 4.06L155.46 4.06L155.46 4.06Q155.46 7.49 152.42 9.47L152.42 9.47L152.42 9.47Q149.38 11.46 143.46 11.46L143.46 11.46L143.46 11.46Q137.54 11.46 130.69 8.70L130.69 8.70L130.69 8.70Q123.84 5.95 117.95 0.83L117.95 0.83ZM158.02-9.47L158.02-9.47L158.02-9.47Q158.02-11.97 158.66-15.17L158.66-15.17L163.84-42.24L177.98-42.24L172.86-14.98L172.86-14.98Q172.29-11.97 172.29-9.76L172.29-9.76L172.29-9.76Q172.29-7.55 173.22-6.40L173.22-6.40L173.22-6.40Q174.14-5.25 175.87-5.25L175.87-5.25L175.87-5.25Q177.60-5.25 178.69-5.70L178.69-5.70L178.69-5.70Q179.78-6.14 180.67-7.23L180.67-7.23L180.67-7.23Q182.40-9.41 183.49-14.98L183.49-14.98L188.67-42.24L198.34-42.24L193.22-15.04L193.22-15.04Q191.42-5.95 186.50-2.30L186.50-2.30L186.50-2.30Q181.70 1.28 172.22 1.28L172.22 1.28L172.22 1.28Q165.12 1.28 161.34-1.79L161.34-1.79L161.34-1.79Q158.02-4.48 158.02-9.47ZM212.67 0L199.04 0L206.34-38.91L207.04-42.24L220.74-42.24L212.67 0ZM238.66-3.78L238.66-3.78L238.66-3.78Q236.93 1.28 230.27 1.28L230.27 1.28L230.27 1.28Q225.34 1.28 221.95-4.61L221.95-4.61L221.95-4.61Q218.50-10.50 217.86-20.10L217.86-20.10L217.86-20.10Q224.90-32.96 229.76-38.27L229.76-38.27L229.76-38.27Q234.43-43.33 239.30-43.33L239.30-43.33L239.30-43.33Q241.92-43.33 243.81-41.92L243.81-41.92L243.81-41.92Q245.70-40.51 246.14-38.27L246.14-38.27L246.14-38.27Q243.97-37.38 242.94-36.67L242.94-36.67L242.94-36.67Q240.38-34.75 236.93-30.46L236.93-30.46L231.10-23.49L231.10-23.49Q229.70-21.82 229.12-21.06L229.12-21.06L229.12-21.06Q230.08-15.68 232.96-10.37L232.96-10.37L232.96-10.37Q235.71-5.31 238.66-3.78ZM271.42-9.86L271.42-9.86L271.42-9.86Q272.64-8.32 272.64-5.82L272.64-5.82L272.64-5.82Q272.64-2.37 270.08-0.54L270.08-0.54L270.08-0.54Q267.52 1.28 263.49 1.28L263.49 1.28L263.49 1.28Q261.18 1.28 257.66 0.77L257.66 0.77L257.66 0.77Q250.75-0.32 248.64-0.32L248.64-0.32L248.64-0.32Q246.53-0.32 245.70-0.22L245.70-0.22L245.70-0.22Q244.86-0.13 243.52 0L243.52 0L251.39-42.24L278.98-42.24L278.98-42.24Q278.98-38.34 277.09-36.29L277.09-36.29L277.09-36.29Q275.20-34.24 271.49-34.24L271.49-34.24L271.49-34.24Q267.78-34.24 264-35.97L264-35.97L262.02-24.77L273.41-24.77L273.41-24.77Q273.41-21.38 271.74-19.49L271.74-19.49L271.74-19.49Q270.08-17.60 267.30-17.60L267.30-17.60L267.30-17.60Q264.51-17.60 262.78-18.24L262.78-18.24L262.78-18.24Q261.06-18.88 260.86-19.07L260.86-19.07L258.56-6.98L258.56-6.98Q260.10-6.78 262.98-6.78L262.98-6.78L262.98-6.78Q267.90-6.78 271.42-9.86Z" fill="url(#editing-shiny-gradient2)"></path></g></g><style>text {
  font-size: 64px;
  font-family: Arial Black;
  dominant-baseline: central;
  text-anchor: middle;
}</style></svg>
