<svg version="1.1" xmlns="http://www.w3.org/2000/svg" width="400" height="200" style="border: dashed 2px #aaa"><path fill="#" d="M17.724609375,105.0537109375l0-3.3837890625l0-3.4716796875q0.0439453125-3.515625,0.28564453125-6.74560546875t0.68115234375-5.38330078125q0.263671875-1.1865234375,1.58203125-1.4501953125t2.28515625-0.263671875q1.8017578125,0,2.65869140625,0.439453125t1.12060546875,1.25244140625t0.2197265625,1.93359375t-0.0439453125,2.57080078125q0,2.0654296875-0.087890625,5.7568359375t-0.1318359375,8.173828125l0,2.2412109375q0,3.3837890625,0.087890625,6.9873046875q0.1318359375,4.833984375,0.50537109375,9.25048828125t1.03271484375,7.9541015625t1.845703125,5.42724609375q1.8896484375-1.7138671875,3.779296875-4.81201171875t3.603515625-6.96533203125t3.27392578125-8.15185546875t2.83447265625-8.37158203125t2.17529296875-7.6904296875t1.34033203125-6.1083984375q0.703125-3.603515625,0.94482421875-7.3388671875t0.24169921875-8.3056640625q1.3623046875-1.6259765625,2.109375-2.04345703125t2.373046875-0.41748046875q0.791015625,0,1.60400390625,0.1318359375t1.56005859375,0.615234375l0.615234375,0.966796875l0,1.0986328125q0,7.998046875-0.76904296875,16.23779296875t-1.6259765625,16.5673828125t-1.6259765625,16.69921875t-0.76904296875,16.63330078125q0,1.2744140625,0.10986328125,2.70263671875t0.46142578125,2.70263671875l-0.17578125,0.52734375q-0.615234375,1.0107421875-2.021484375,1.2744140625t-2.4169921875,0.263671875q-2.1533203125,0-3.22998046875-0.63720703125t-1.42822265625-1.7578125t-0.3076171875-2.5927734375t0.0439453125-3.18603515625q0-5.9326171875,0.52734375-12.06298828125t1.2744140625-12.06298828125q-0.703125,2.0654296875-1.669921875,4.98779296875t-2.26318359375,5.8447265625t-3.01025390625,5.361328125t-3.779296875,3.49365234375l0.087890625-0.087890625l-0.3515625,0.17578125l0.087890625,0q-1.2744140625,0.703125-2.35107421875,0.94482421875t-2.52685546875,0.24169921875q-2.900390625,0-4.81201171875-1.7138671875t-3.09814453125-4.41650390625t-1.7578125-6.064453125t-0.81298828125-6.74560546875t-0.24169921875-6.43798828125l0-5.03173828125q0-2.4169921875-0.0439453125-5.7568359375z M33.369140625,140.0341796875q0.087890625,0,0.087890625-0.087890625l0.087890625,0q-0.087890625,0.087890625-0.17578125,0.087890625z M65.214990234375,87.4755859375q0-0.52734375,0.50537109375-0.791015625t1.0986328125-0.3955078125t1.07666015625-0.1318359375l0.4833984375,0q1.5380859375,0,2.21923828125,0.703125t1.64794921875,1.8017578125q6.591796875,9.5361328125,12.0849609375,19.62158203125t10.5908203125,20.41259765625q0.439453125-12.041015625,0.90087890625-24.23583984375t1.16455078125-24.19189453125q0-0.52734375,0.50537109375-0.87890625t1.142578125-0.52734375t1.29638671875-0.2197265625t1.0107421875-0.0439453125q0.52734375,0,1.16455078125,0.0439453125t1.2744140625,0.263671875t1.0546875,0.52734375t0.41748046875,0.8349609375q0.17578125,1.8896484375,0.19775390625,3.80126953125t0.02197265625,3.80126953125q0,14.150390625-0.615234375,27.7294921875t-0.615234375,27.421875l0,3.1640625q0,0.17578125-0.17578125,0.52734375q0.087890625,0.3515625,0.263671875,0.76904296875t0.17578125,0.59326171875q0,0.703125-0.72509765625,1.0546875t-1.58203125,0.54931640625t-1.51611328125,0.19775390625t-0.4833984375,0q-2.2412109375,0-3.779296875-1.23046875t-1.5380859375-2.9443359375q-3.251953125-7.294921875-6.48193359375-14.47998046875t-6.74560546875-14.30419921875q-2.2412109375-4.482421875-4.50439453125-8.98681640625t-4.85595703125-8.72314453125q0.087890625,0.087890625,0.087890625,0.263671875q0.439453125,4.39453125,0.94482421875,8.76708984375t0.76904296875,8.76708984375q0.17578125,3.779296875,0.3955078125,7.646484375t0.703125,7.646484375q0,1.4501953125-0.90087890625,1.845703125t-2.08740234375,0.3955078125q-1.0107421875,0-1.91162109375-0.263671875t-1.07666015625-1.318359375q0-4.04296875-0.3076171875-8.59130859375t-0.5712890625-9.16259765625q-0.439453125-6.1083984375-1.16455078125-12.41455078125t-0.72509765625-12.32666015625q0-0.263671875,0.0439453125-0.54931640625t0.0439453125-0.63720703125q-0.263671875-0.439453125-0.59326171875-0.9228515625t-0.32958984375-0.87890625z M114.02373046875,144.384765625q0.17578125-9.1845703125,0.76904296875-18.3251953125t1.03271484375-18.3251953125q0.087890625-3.515625,0.087890625-6.39404296875t0.28564453125-4.98779296875t1.0546875-3.22998046875t2.57080078125-1.12060546875q1.5380859375,0,2.3291015625,0.439453125t1.20849609375,1.12060546875t0.50537109375,1.5380859375t0.087890625,1.73583984375q0,1.2744140625,0.087890625,2.52685546875t0.087890625,2.52685546875q0,9.2724609375-0.50537109375,18.5009765625t-0.50537109375,18.5888671875q0,1.3623046875,0.0439453125,2.74658203125t0.0439453125,2.83447265625q0,0.52734375-0.4833984375,0.87890625t-1.20849609375,0.59326171875t-1.5380859375,0.32958984375t-1.34033203125,0.087890625q-0.615234375,0-1.38427734375-0.087890625t-1.494140625-0.37353515625t-1.23046875-0.68115234375t-0.50537109375-0.9228515625z M116.48466796875,84.794921875q0-0.439453125,0.1318359375-0.98876953125t0.3076171875-0.98876953125q0.087890625-0.52734375,0.263671875-1.8017578125t0.63720703125-2.48291015625t1.2744140625-2.1533203125t2.30712890625-0.94482421875l0.8349609375,0q0.703125,0.17578125,1.42822265625,0.439453125t0.72509765625,1.2744140625q0,0.439453125-0.0439453125,0.8349609375t-0.1318359375,0.87890625q-0.3515625,2.5927734375-0.68115234375,4.0869140625t-0.76904296875,2.26318359375t-1.12060546875,0.98876953125t-1.73583984375,0.3076171875q-0.3515625,0-0.94482421875-0.0439453125t-1.142578125-0.2197265625t-0.94482421875-0.54931640625t-0.3955078125-0.90087890625z M133.43305664063,120.126953125q-0.0439453125-0.17578125-0.0439453125-0.3515625q0-4.5703125,0.5712890625-9.4921875q0.615234375-5.1416015625,1.91162109375-10.283203125t3.515625-9.31640625t5.4052734375-6.92138671875t7.71240234375-3.27392578125q0.791015625-0.087890625,1.6259765625-0.087890625q2.2412109375,0,4.6142578125,0.703125q3.2958984375,0.9228515625,5.361328125,3.251953125q2.3291015625,0.17578125,3.7353515625,1.845703125t2.109375,4.04296875t1.03271484375,4.89990234375t0.50537109375,4.41650390625q0.439453125,4.130859375,0.5712890625,8.96484375q0.0439453125,0.9228515625,0.0439453125,1.8896484375q0,3.8671875-0.439453125,7.7783203125q-0.52734375,4.921875-1.8896484375,9.55810546875t-3.779296875,8.37158203125t-6.15234375,6.26220703125t-9.052734375,3.05419921875q4.5703125,2.0654296875,8.94287109375,4.37255859375t9.03076171875,3.93310546875q0.439453125,0.17578125,1.20849609375,0.263671875t1.5380859375,0.3076171875t1.3623046875,0.52734375t0.68115234375,0.966796875q0,0.52734375-0.54931640625,0.9228515625t-1.318359375,0.72509765625t-1.51611328125,0.50537109375t-1.142578125,0.263671875l-0.703125,0l-1.12060546875,0t-1.03271484375-0.087890625t-0.52734375-0.263671875q-2.2412109375-0.263671875-5.2294921875-1.58203125t-6.08642578125-3.01025390625t-6.064453125-3.36181640625t-5.29541015625-2.6806640625l-0.4833984375-1.23046875q0.17578125-0.3515625,0.63720703125-0.63720703125t0.90087890625-0.46142578125q-2.7685546875-0.87890625-4.6142578125-2.63671875t-2.98828125-4.02099609375t-1.7578125-4.833984375t-0.87890625-5.16357421875q-0.3515625-3.427734375-0.3515625-8.1298828125z M141.95844726563,120.21484375q0.087890625,3.6474609375,0.3515625,6.240234375q0.087890625,1.3623046875,0.50537109375,3.3837890625t1.07666015625,4.0869140625t1.60400390625,3.8232421875t2.13134765625,2.5927734375q0.791015625,0.439453125,1.56005859375,0.6591796875t1.51611328125,0.6591796875q1.0986328125-0.087890625,1.845703125-0.4833984375t1.7578125-0.5712890625l0.087890625-0.087890625q3.1640625-1.4501953125,5.4052734375-4.19677734375t3.71337890625-6.21826171875t2.28515625-7.470703125t1.12060546875-7.998046875q0.2197265625-3.1201171875,0.2197265625-6.064453125l0-1.669921875q-0.087890625-3.7353515625-0.3515625-6.7236328125q-0.3515625-2.7685546875-0.703125-5.51513671875t-1.3623046875-5.38330078125q-1.8017578125,0.439453125-2.65869140625,0.263671875t-1.56005859375-1.8896484375q-0.263671875,0-0.59326171875-0.1318359375t-0.41748046875-0.4833984375q0-0.263671875,0.17578125-0.439453125q-1.8017578125-1.8017578125-3.779296875-2.0654296875q-0.8349609375-0.1318359375-1.845703125-0.1318359375q-1.2744140625,0-2.8125,0.2197265625l-0.087890625,0q-2.2412109375,1.6259765625-3.8232421875,4.63623046875t-2.65869140625,6.83349609375t-1.7138671875,8.0419921875t-0.85693359375,8.349609375q-0.17578125,2.900390625-0.17578125,5.625q0,1.0546875,0.0439453125,2.109375z M152.10981445313,145.263671875q0.2197265625-0.087890625,0.6591796875-0.087890625q-0.17578125,0-0.3076171875,0.0439453125t-0.3515625,0.0439453125z M182.68125,105.0537109375l0-3.3837890625l0-3.4716796875q0.0439453125-3.515625,0.28564453125-6.74560546875t0.68115234375-5.38330078125q0.263671875-1.1865234375,1.58203125-1.4501953125t2.28515625-0.263671875q1.8017578125,0,2.65869140625,0.439453125t1.12060546875,1.25244140625t0.2197265625,1.93359375t-0.0439453125,2.57080078125q0,2.0654296875-0.087890625,5.7568359375t-0.1318359375,8.173828125l0,2.2412109375q0,3.3837890625,0.087890625,6.9873046875q0.1318359375,4.833984375,0.50537109375,9.25048828125t1.03271484375,7.9541015625t1.845703125,5.42724609375q1.8896484375-1.7138671875,3.779296875-4.81201171875t3.603515625-6.96533203125t3.27392578125-8.15185546875t2.83447265625-8.37158203125t2.17529296875-7.6904296875t1.34033203125-6.1083984375q0.703125-3.603515625,0.94482421875-7.3388671875t0.24169921875-8.3056640625q1.3623046875-1.6259765625,2.109375-2.04345703125t2.373046875-0.41748046875q0.791015625,0,1.60400390625,0.1318359375t1.56005859375,0.615234375l0.615234375,0.966796875l0,1.0986328125q0,7.998046875-0.76904296875,16.23779296875t-1.6259765625,16.5673828125t-1.6259765625,16.69921875t-0.76904296875,16.63330078125q0,1.2744140625,0.10986328125,2.70263671875t0.46142578125,2.70263671875l-0.17578125,0.52734375q-0.615234375,1.0107421875-2.021484375,1.2744140625t-2.4169921875,0.263671875q-2.1533203125,0-3.22998046875-0.63720703125t-1.42822265625-1.7578125t-0.3076171875-2.5927734375t0.0439453125-3.18603515625q0-5.9326171875,0.52734375-12.06298828125t1.2744140625-12.06298828125q-0.703125,2.0654296875-1.669921875,4.98779296875t-2.26318359375,5.8447265625t-3.01025390625,5.361328125t-3.779296875,3.49365234375l0.087890625-0.087890625l-0.3515625,0.17578125l0.087890625,0q-1.2744140625,0.703125-2.35107421875,0.94482421875t-2.52685546875,0.24169921875q-2.900390625,0-4.81201171875-1.7138671875t-3.09814453125-4.41650390625t-1.7578125-6.064453125t-0.81298828125-6.74560546875t-0.24169921875-6.43798828125l0-5.03173828125q0-2.4169921875-0.0439453125-5.7568359375z M198.32578125,140.0341796875q0.087890625,0,0.087890625-0.087890625l0.087890625,0q-0.087890625,0.087890625-0.17578125,0.087890625z M230.17163085938,117.3583984375q0-7.55859375,0.41748046875-14.94140625t1.03271484375-14.94140625q0.17578125-1.9775390625,0.2197265625-3.8232421875t0.41748046875-3.22998046875t1.318359375-2.197265625t2.92236328125-0.81298828125q1.2744140625,0,2.65869140625,0.439453125t1.38427734375,2.0654296875q0,6.1083984375-0.50537109375,12.01904296875t-0.68115234375,11.75537109375q4.7900390625-5.4052734375,10.2392578125-10.08544921875t11.5576171875-9.25048828125q0.87890625-0.615234375,2.2412109375-0.6591796875q0.439453125,0,0.76904296875,0.0439453125t0.68115234375,0.1318359375q0.439453125,0.17578125,0.90087890625,0.41748046875t0.46142578125,0.68115234375q0,0.3515625-0.3955078125,0.615234375q-4.5703125,3.69140625-9.03076171875,7.5146484375t-8.50341796875,8.173828125q0.52734375,1.0107421875,0.90087890625,1.8896484375t0.81298828125,1.8896484375q3.69140625,8.7451171875,6.30615234375,17.90771484375t5.55908203125,18.17138671875q0.263671875,1.0107421875,0.76904296875,2.08740234375t0.94482421875,2.1533203125t0.76904296875,2.021484375t0.32958984375,1.56005859375q0,0.791015625-0.50537109375,1.25244140625t-1.16455078125,0.72509765625t-1.42822265625,0.3515625t-1.42822265625,0.087890625q-1.5380859375,0-2.74658203125-0.439453125t-1.91162109375-1.9775390625q-3.251953125-10.37109375-6.26220703125-20.7421875t-6.08642578125-20.91796875q-1.0107421875,1.0107421875-2.021484375,2.52685546875t-1.845703125,2.79052734375q0,6.591796875,0.3076171875,13.095703125t1.0546875,13.095703125q0.17578125,1.8896484375,0.59326171875,3.779296875t0.41748046875,3.8671875q0,1.4501953125-1.494140625,2.021484375t-3.2958984375,0.5712890625q-1.9775390625,0-2.96630859375-0.3955078125t-1.40625-1.03271484375t-0.50537109375-1.40625t-0.263671875-1.47216796875q-1.0107421875-6.943359375-1.2744140625-13.73291015625t-0.263671875-13.64501953125z M275.20107421875,140.25390625q0.087890625-1.845703125,0.087890625-3.603515625q0-6.3720703125,0.46142578125-12.7001953125t0.63720703125-12.7001953125q0.263671875-7.294921875,0.4833984375-14.4580078125t0.87890625-14.4140625q0.17578125-1.8017578125,1.03271484375-2.35107421875t2.57080078125-0.54931640625q0.791015625,0,2.109375,0.3076171875t1.318359375,1.494140625q0.615234375,0.087890625,1.23046875,0.087890625q0.9228515625,0,1.8896484375-0.17578125q1.58203125-0.263671875,3.22998046875-0.59326171875t3.27392578125-0.63720703125t3.1201171875-0.3076171875q0.3515625,0,0.98876953125,0.0439453125t1.2744140625,0.263671875t1.07666015625,0.54931640625t0.439453125,0.85693359375t-1.03271484375,0.94482421875t-2.70263671875,0.72509765625t-3.603515625,0.52734375t-3.779296875,0.37353515625t-3.27392578125,0.24169921875t-2.04345703125,0.087890625l-0.087890625,16.5234375l0.087890625,8.2177734375q1.3623046875,0,4.0869140625-0.087890625q1.0986328125-0.0439453125,2.197265625-0.0439453125q1.669921875,0,3.427734375,0.087890625q2.900390625,0.1318359375,5.2294921875,0.52734375t2.9443359375,1.40625q0,0.615234375-0.63720703125,0.98876953125t-1.42822265625,0.54931640625t-1.60400390625,0.2197265625t-1.16455078125,0.0439453125q-3.251953125,0-6.5478515625-0.1318359375t-6.50390625-0.52734375q0,5.4052734375-0.28564453125,10.72265625t-0.28564453125,10.72265625q0,2.3291015625,0.0439453125,4.59228515625t0.52734375,4.50439453125q1.1865234375-0.087890625,2.57080078125-0.2197265625t2.8125-0.32958984375t2.74658203125-0.32958984375t2.28515625-0.1318359375q0.52734375,0,1.42822265625,0.1318359375t1.845703125,0.439453125t1.6259765625,0.76904296875t0.68115234375,1.07666015625q0,0.703125-1.29638671875,1.25244140625t-3.31787109375,0.87890625t-4.41650390625,0.46142578125t-4.63623046875,0.17578125t-4.04296875,0.0439453125l-2.548828125,0q-2.4169921875,0-3.53759765625-0.90087890625t-1.56005859375-2.35107421875q-0.3515625-1.1865234375-0.3076171875-2.6806640625l0-0.615234375z"/><path fill="#" d=""/></svg>
